<?xml version="1.0" encoding="utf-8"?>
<!-- Generator: Adobe Illustrator 23.0.1, SVG Export Plug-In . SVG Version: 6.00 Build 0)  -->
<svg version="1.1" id="Layer_1" xmlns="http://www.w3.org/2000/svg" xmlns:xlink="http://www.w3.org/1999/xlink" x="0px" y="0px"
	 viewBox="0 0 40 40" style="enable-background:new 0 0 40 40;" xml:space="preserve">
<style type="text/css">
	.st0{fill-rule:evenodd;clip-rule:evenodd;fill:#FEFEFE;}
</style>
<path class="st0" d="M26.7,19.6l-10.8,5.8v-9v-2.7l4.9,2.6L26.7,19.6z M39.6,11.7c0,0-0.4-2.9-1.6-4.2c-1.5-1.7-3.2-1.7-4-1.8
	c-5.6-0.4-14-0.4-14-0.4l0,0c0,0-8.4,0-14,0.4C5.2,5.9,3.5,5.9,2,7.5c-1.2,1.3-1.6,4.1-1.6,4.1S0,15,0,18.4v0.4v2.8
	c0,3.4,0.4,6.8,0.4,6.8s0.4,2.9,1.6,4.1c1.5,1.7,3.5,1.6,4.4,1.8C9.6,34.6,20,34.7,20,34.7s8.4,0,14-0.4c0.8-0.1,2.5-0.1,4-1.8
	c1.2-1.3,1.6-4.1,1.6-4.1S40,25,40,21.6V19v-0.6C40,15,39.6,11.7,39.6,11.7L39.6,11.7z"/>
</svg>
