<?xml version="1.0" encoding="utf-8"?>
<!-- Generator: Adobe Illustrator 23.0.1, SVG Export Plug-In . SVG Version: 6.00 Build 0)  -->
<svg version="1.1" id="Layer_1" xmlns="http://www.w3.org/2000/svg" xmlns:xlink="http://www.w3.org/1999/xlink" x="0px" y="0px"
	 viewBox="0 0 40 40" style="enable-background:new 0 0 40 40;" xml:space="preserve">
<style type="text/css">
	.st0{fill-rule:evenodd;clip-rule:evenodd;fill:#FEFEFE;}
</style>
<path class="st0" d="M40,7.8c-1.5,0.6-3,1.1-4.7,1.3c1.7-1,3-2.6,3.6-4.5c-1.6,0.9-3.3,1.6-5.2,2C32.2,5,30.1,4,27.7,4
	c-4.5,0-8.2,3.6-8.2,8.1c0,0.6,0.1,1.2,0.2,1.8c-6.8-0.3-12.9-3.6-16.9-8.4c-0.7,1.2-1.1,2.6-1.1,4c0,2.8,1.5,5.3,3.7,6.7
	c-1.4,0-2.6-0.4-3.7-1v0.1c0,1,0.2,2,0.6,2.9c1,2.5,3.3,4.5,6,5c-0.7,0.2-1.4,0.3-2.2,0.3c-0.5,0-1-0.1-1.5-0.1
	c1,3.2,4.1,5.5,7.7,5.6c-3,2.2-6.5,3.5-10.3,3.5c-0.7,0-1.3-0.1-2-0.1C3.6,34.7,8,36,12.6,36c12.8,0,20.7-8.9,22.8-18.1
	c0.4-1.6,0.6-3.3,0.6-4.9c0-0.3,0-0.7,0-1C37.5,10.8,38.9,9.4,40,7.8L40,7.8z"/>
</svg>
