<?xml version="1.0" encoding="utf-8"?>
<!-- Generator: Adobe Illustrator 23.0.1, SVG Export Plug-In . SVG Version: 6.00 Build 0)  -->
<svg version="1.1" id="Layer_1" xmlns="http://www.w3.org/2000/svg" xmlns:xlink="http://www.w3.org/1999/xlink" x="0px" y="0px"
	 viewBox="0 0 40 40" style="enable-background:new 0 0 40 40;" xml:space="preserve">
<style type="text/css">
	.st0{fill:#FFFFFF;}
</style>
<g>
	<path class="st0" d="M27.2,2.2H12.8C7,2.2,2.2,7,2.2,12.8v14.4C2.2,33,7,37.8,12.8,37.8h14.4c5.8,0,10.6-4.8,10.6-10.6V12.8
		C37.8,7,33,2.2,27.2,2.2z M34.2,27.2c0,3.9-3.1,7-7,7H12.8c-3.9,0-7-3.1-7-7V12.8c0-3.9,3.1-7,7-7h14.4c3.9,0,7,3.1,7,7V27.2
		L34.2,27.2z"/>
	<path class="st0" d="M20,10.8c-5.1,0-9.2,4.1-9.2,9.2s4.1,9.2,9.2,9.2s9.2-4.1,9.2-9.2S25.1,10.8,20,10.8z M20,25.6
		c-3.1,0-5.6-2.5-5.6-5.6s2.5-5.6,5.6-5.6s5.6,2.5,5.6,5.6S23.1,25.6,20,25.6z"/>
	<circle class="st0" cx="29.2" cy="10.9" r="2.2"/>
</g>
</svg>
